<svg width="20" height="20" viewBox="0 0 20 20" fill="none" xmlns="http://www.w3.org/2000/svg">
<path d="M20 3.61729C19.2483 3.94338 18.4534 4.15895 17.64 4.25729C18.4982 3.74461 19.1413 2.93807 19.45 1.98729C18.6436 2.46735 17.7608 2.80558 16.84 2.98729C16.2245 2.31986 15.405 1.87558 14.5098 1.72414C13.6147 1.57269 12.6945 1.72265 11.8938 2.15048C11.093 2.57831 10.4569 3.25982 10.0852 4.08812C9.71355 4.91643 9.62729 5.84468 9.84 6.72729C8.20943 6.64481 6.61444 6.22024 5.15865 5.48115C3.70287 4.74206 2.41885 3.70498 1.39 2.43729C1.02914 3.06746 0.839519 3.78111 0.84 4.50729C0.83872 5.18167 1.00422 5.8459 1.32176 6.44085C1.63929 7.0358 2.09902 7.543 2.66 7.91729C2.00798 7.89955 1.36989 7.72459 0.8 7.40729V7.45729C0.804887 8.40218 1.13599 9.31638 1.73731 10.0453C2.33864 10.7741 3.17326 11.2729 4.1 11.4573C3.74326 11.5659 3.37287 11.6231 3 11.6273C2.74189 11.6243 2.48442 11.6009 2.23 11.5573C2.49391 12.3701 3.00462 13.0804 3.69107 13.5894C4.37753 14.0985 5.20558 14.3808 6.06 14.3973C4.6172 15.5326 2.83588 16.1521 1 16.1573C0.665735 16.1584 0.331736 16.1383 0 16.0973C1.87443 17.3075 4.05881 17.95 6.29 17.9473C7.82969 17.9633 9.35714 17.6723 10.7831 17.0914C12.2091 16.5104 13.505 15.6512 14.5952 14.5638C15.6854 13.4764 16.548 12.1827 17.1326 10.7582C17.7172 9.33371 18.012 7.80702 18 6.26729C18 6.09729 18 5.91729 18 5.73729C18.7847 5.1521 19.4615 4.43471 20 3.61729Z" fill="white"/>
</svg>
